<?xml version="1.0" standalone="no"?>
<!DOCTYPE svg PUBLIC "-//W3C//DTD SVG 20010904//EN"
 "http://www.w3.org/TR/2001/REC-SVG-20010904/DTD/svg10.dtd">
<svg version="1.0" xmlns="http://www.w3.org/2000/svg"
 width="1127.000000pt" height="837.000000pt" viewBox="0 0 1127.000000 837.000000"
 preserveAspectRatio="xMidYMid meet">

<g transform="translate(0.000000,837.000000) scale(0.100000,-0.100000)"
fill="#000000" stroke="none">
<path d="M0 4185 l0 -4185 5635 0 5635 0 -2 4188 -3 4187 -2 -4177 -3 -4178
-5620 0 -5620 0 0 4175 c0 2777 -3 4175 -10 4175 -7 0 -10 -1402 -10 -4185z"/>
<path d="M763 7652 c-59 -35 -62 -39 -63 -75 l0 -38 48 27 c26 15 51 31 56 36
17 14 45 9 84 -15 82 -52 82 -52 82 -10 0 36 -3 40 -63 73 -34 19 -66 36 -72
37 -5 0 -38 -15 -72 -35z"/>
<path d="M1260 7510 l0 -71 -30 16 c-16 8 -49 15 -73 15 -137 0 -198 -182 -93
-279 31 -30 128 -41 167 -21 17 10 24 10 27 1 2 -6 19 -11 38 -11 l34 0 0 210
0 210 -35 0 -35 0 0 -70z m-22 -136 c34 -39 30 -95 -9 -128 -72 -61 -164 1
-144 96 15 66 106 85 153 32z"/>
<path d="M697 7464 c-10 -10 -8 -161 2 -207 25 -105 160 -140 239 -61 l32 32
0 121 0 121 -35 0 -35 0 0 -105 c0 -92 -3 -108 -20 -125 -23 -23 -58 -26 -86
-6 -16 12 -20 30 -24 123 l-5 108 -30 3 c-17 2 -34 0 -38 -4z"/>
<path d="M1455 7460 c-11 -4 -33 -22 -50 -39 -25 -28 -30 -40 -33 -99 -4 -78
16 -120 70 -148 61 -32 169 -16 206 29 18 21 -37 44 -66 28 -37 -20 -91 -13
-117 14 -14 13 -25 29 -25 34 0 6 47 11 118 13 l117 3 -2 37 c-5 86 -62 138
-148 137 -27 0 -59 -4 -70 -9z m125 -70 c34 -34 24 -40 -60 -40 -44 0 -80 4
-80 9 0 5 12 19 26 30 34 27 88 27 114 1z"/>
<path d="M1717 7463 c-4 -3 -7 -73 -7 -155 l0 -148 35 0 35 0 0 100 c0 94 2
103 25 125 60 61 95 11 95 -136 l0 -89 35 0 35 0 0 105 c0 92 3 108 20 125 24
24 38 25 68 4 20 -14 22 -23 22 -125 l0 -110 38 3 37 3 3 60 c2 33 0 89 -3
124 -6 52 -12 70 -35 93 -35 34 -98 38 -146 9 -29 -18 -31 -18 -53 0 -29 23
-83 24 -116 3 -23 -15 -25 -15 -25 0 0 11 -9 16 -28 16 -16 0 -32 -3 -35 -7z"/>
<path d="M2170 7456 c0 -7 27 -78 59 -157 57 -138 58 -145 44 -173 -8 -15 -28
-33 -44 -39 -22 -9 -29 -18 -29 -39 0 -25 4 -28 34 -28 59 0 78 26 165 231 45
105 83 196 84 202 1 7 -12 12 -32 12 -34 0 -35 -1 -78 -105 -24 -57 -46 -106
-47 -108 -2 -2 -18 34 -36 80 -49 128 -56 138 -90 138 -19 0 -30 -5 -30 -14z"/>
<path d="M726 6177 c-13 -9 -17 -23 -14 -52 2 -33 8 -41 31 -49 21 -8 31 -6
43 6 15 15 14 16 -17 15 -32 -2 -34 0 -34 33 0 33 2 35 33 33 27 -1 31 1 21
13 -14 17 -40 18 -63 1z"/>
<path d="M850 6130 l0 -60 40 0 c22 0 40 5 40 10 0 6 -13 10 -30 10 -20 0 -30
5 -30 15 0 9 9 15 25 15 14 0 25 5 25 10 0 6 -11 10 -25 10 -16 0 -25 6 -25
15 0 10 10 15 30 15 17 0 30 5 30 10 0 6 -18 10 -40 10 l-40 0 0 -60z"/>
<path d="M980 6130 c0 -33 4 -60 10 -60 6 0 10 11 10 25 0 14 4 25 10 25 5 0
17 -11 26 -25 9 -14 21 -25 26 -25 6 0 3 11 -5 24 -14 21 -14 26 -2 36 8 7 15
16 15 21 0 17 -33 39 -61 39 -29 0 -29 0 -29 -60z m65 20 c0 -8 -10 -16 -22
-18 -18 -3 -23 2 -23 18 0 16 5 21 23 18 12 -2 22 -10 22 -18z"/>
<path d="M1105 6180 c-3 -5 3 -10 14 -10 18 0 21 -6 21 -50 0 -27 5 -50 10
-50 6 0 10 23 10 50 0 38 4 50 15 50 8 0 15 5 15 10 0 6 -18 10 -39 10 -22 0
-43 -4 -46 -10z"/>
<path d="M1230 6130 c0 -33 4 -60 10 -60 6 0 10 27 10 60 0 33 -4 60 -10 60
-6 0 -10 -27 -10 -60z"/>
<path d="M1301 6128 c1 -35 4 -51 6 -35 3 21 10 27 29 27 13 0 24 5 24 10 0 6
-11 10 -25 10 -16 0 -25 6 -25 15 0 10 10 15 30 15 17 0 30 5 30 10 0 6 -16
10 -35 10 l-35 0 1 -62z"/>
<path d="M1423 6130 c0 -36 2 -50 4 -32 2 17 2 47 0 65 -2 17 -4 3 -4 -33z"/>
<path d="M1497 6172 c-38 -42 -4 -111 48 -98 35 9 31 21 -7 21 -31 0 -33 2
-33 35 0 33 2 35 33 35 34 0 42 9 16 19 -26 10 -40 7 -57 -12z"/>
<path d="M1635 6134 c-9 -30 -15 -58 -11 -61 3 -3 8 2 12 11 8 20 53 21 60 1
4 -8 10 -15 14 -15 4 0 -2 27 -13 60 -12 33 -26 60 -33 60 -6 0 -19 -25 -29
-56z m45 -5 c0 -10 -7 -19 -15 -19 -15 0 -21 31 -9 43 11 10 24 -3 24 -24z"/>
<path d="M1746 6181 c-3 -5 3 -11 14 -14 15 -4 20 -16 23 -53 l3 -49 2 48 c2
40 6 50 22 54 30 8 13 23 -25 23 -19 0 -36 -4 -39 -9z"/>
<path d="M1870 6130 l0 -60 40 0 c22 0 40 5 40 10 0 6 -13 10 -30 10 -20 0
-30 5 -30 15 0 9 9 15 25 15 14 0 25 5 25 10 0 6 -11 10 -25 10 -16 0 -25 6
-25 15 0 10 10 15 30 15 17 0 30 5 30 10 0 6 -18 10 -40 10 l-40 0 0 -60z"/>
<path d="M2067 6172 c-40 -44 -2 -115 51 -96 22 8 28 16 30 49 3 29 -1 43 -14
52 -25 18 -48 16 -67 -5z m68 -22 c11 -36 -4 -62 -33 -58 -28 3 -40 32 -28 64
8 22 54 18 61 -6z"/>
<path d="M2201 6128 c1 -35 4 -51 6 -35 3 21 10 27 29 27 13 0 24 5 24 10 0 6
-11 10 -25 10 -16 0 -25 6 -25 15 0 10 10 15 30 15 17 0 30 5 30 10 0 6 -16
10 -35 10 l-35 0 1 -62z"/>
<path d="M2377 6172 c-22 -24 -21 -65 1 -85 22 -20 46 -22 60 -4 8 9 3 12 -21
12 -30 0 -32 2 -32 35 0 33 2 35 33 35 34 0 42 9 16 19 -26 10 -40 7 -57 -12z"/>
<path d="M2517 6172 c-40 -44 -2 -115 51 -96 22 8 28 16 30 49 3 29 -1 43 -14
52 -25 18 -48 16 -67 -5z m68 -22 c11 -36 -4 -62 -33 -58 -28 3 -40 32 -28 64
8 22 54 18 61 -6z"/>
<path d="M2650 6131 c0 -72 17 -82 22 -13 l4 47 13 -47 c7 -27 17 -48 20 -48
4 0 15 21 23 48 l16 47 1 -47 c1 -71 21 -58 21 13 0 52 -2 60 -17 57 -11 -2
-22 -18 -27 -41 -5 -20 -12 -37 -16 -37 -4 0 -11 17 -16 37 -5 23 -16 39 -26
41 -16 3 -18 -5 -18 -57z"/>
<path d="M2820 6130 c0 -33 4 -60 10 -60 6 0 10 11 10 24 0 21 6 25 32 28 63
6 41 68 -24 68 -28 0 -28 -1 -28 -60z m68 23 c-2 -10 -13 -19 -26 -21 -17 -3
-22 2 -22 17 0 16 6 21 26 21 19 0 25 -5 22 -17z"/>
<path d="M2962 6133 l-2 -63 30 0 c17 0 30 5 30 10 0 6 -11 10 -24 10 -23 0
-25 4 -29 53 l-3 52 -2 -62z"/>
<path d="M3070 6130 l0 -60 40 0 c47 0 54 17 8 22 -42 4 -50 28 -9 28 37 0 42
17 6 22 -35 4 -36 22 -2 26 39 5 33 22 -8 22 l-35 0 0 -60z"/>
<path d="M3180 6180 c0 -5 7 -10 15 -10 11 0 15 -12 15 -50 0 -27 5 -50 10
-50 6 0 10 23 10 50 0 38 4 50 15 50 8 0 15 5 15 10 0 6 -18 10 -40 10 -22 0
-40 -4 -40 -10z"/>
<path d="M3313 6130 c0 -36 2 -50 4 -32 2 17 2 47 0 65 -2 17 -4 3 -4 -33z"/>
<path d="M3386 6168 c-9 -12 -16 -29 -16 -38 0 -9 7 -26 16 -38 22 -31 63 -26
84 11 13 24 13 30 0 55 -21 36 -62 41 -84 10z m70 -13 c4 -8 3 -27 0 -41 -5
-20 -12 -25 -34 -22 -28 3 -40 32 -28 64 7 19 55 18 62 -1z"/>
<path d="M3527 6183 c-11 -10 -8 -113 2 -113 6 0 11 19 13 43 l3 42 25 -42
c36 -61 50 -56 50 17 0 33 -4 60 -10 60 -5 0 -10 -16 -10 -35 0 -19 -4 -35 -8
-35 -5 0 -17 16 -28 35 -19 35 -25 40 -37 28z"/>
<path d="M1272 5747 c-57 -20 -60 -23 -42 -35 19 -12 20 -23 20 -217 0 -199 0
-204 -22 -219 -21 -15 -16 -16 71 -16 90 0 93 1 72 18 -20 16 -22 25 -19 132
l3 115 28 3 c51 6 57 -9 57 -134 0 -97 -2 -114 -17 -123 -13 -8 6 -10 71 -11
80 0 88 2 70 14 -17 13 -20 31 -24 146 -5 129 -6 132 -33 156 -15 13 -39 24
-53 24 -32 0 -80 -25 -93 -47 -8 -13 -10 15 -11 100 0 64 -3 117 -7 116 -5 0
-36 -10 -71 -22z"/>
<path d="M3965 5745 c-58 -18 -66 -23 -47 -29 22 -7 22 -9 22 -216 0 -204 0
-209 -22 -224 -21 -15 -16 -16 71 -16 90 0 93 1 72 18 -20 16 -21 27 -24 253
l-2 235 -70 -21z"/>
<path d="M7792 5748 l-63 -20 21 -20 c21 -20 21 -26 18 -234 -2 -118 1 -214 5
-214 4 0 21 7 36 15 26 13 32 12 67 -6 150 -76 283 161 164 294 -24 27 -35 32
-73 32 -34 0 -52 -6 -71 -24 l-26 -24 0 111 c0 62 -3 112 -7 111 -5 -1 -36
-10 -71 -21z m160 -240 c41 -47 48 -170 11 -210 -18 -20 -63 -24 -81 -6 -17
17 -17 234 1 241 19 8 51 -3 69 -25z"/>
<path d="M2238 5706 c-52 -19 -83 -40 -111 -78 -57 -76 -61 -184 -10 -266 82
-131 289 -143 369 -22 15 22 23 44 19 48 -4 4 -12 -1 -19 -12 -56 -92 -144
-122 -217 -73 -98 65 -88 327 15 382 30 16 40 17 75 6 41 -12 92 -65 106 -112
9 -27 26 -24 21 4 -3 12 -8 43 -11 68 -6 45 -7 47 -50 58 -58 15 -141 13 -187
-3z"/>
<path d="M5251 5703 c-37 -18 -71 -66 -70 -98 0 -20 0 -20 12 -1 27 44 47 56
90 56 58 0 83 -26 80 -85 -2 -63 -35 -117 -129 -215 -46 -48 -84 -90 -84 -94
0 -3 72 -6 160 -6 l160 0 0 45 0 44 -105 3 -106 3 71 60 c124 104 160 182 117
249 -35 53 -129 72 -196 39z"/>
<path d="M5665 5704 c-82 -42 -119 -109 -120 -214 0 -65 4 -82 29 -128 69
-123 186 -144 273 -49 48 52 67 102 67 177 1 157 -135 274 -249 214z m104 -26
c28 -29 36 -74 36 -198 -1 -118 -15 -173 -51 -197 -24 -15 -27 -15 -52 4 -17
12 -31 37 -39 64 -17 65 -16 216 2 277 22 72 65 93 104 50z"/>
<path d="M6035 5706 c-40 -18 -72 -54 -80 -91 l-7 -30 32 38 c28 32 37 37 76
37 75 0 99 -42 73 -133 -11 -41 -70 -120 -157 -209 l-56 -58 162 0 162 0 0 45
0 45 -102 0 -103 0 82 78 c119 112 143 164 108 231 -27 54 -122 77 -190 47z"/>
<path d="M6400 5702 c-36 -18 -80 -73 -80 -101 0 -9 12 -1 31 22 26 32 36 37
73 37 45 0 76 -22 76 -54 0 -30 -30 -75 -60 -91 -39 -20 -38 -28 5 -44 47 -16
75 -55 75 -101 0 -49 -25 -79 -72 -87 -33 -5 -41 -2 -70 28 -18 19 -38 43 -45
54 -10 17 -12 12 -12 -37 -1 -55 0 -57 30 -63 56 -13 138 -6 184 14 106 47
115 174 16 233 l-40 24 35 28 c20 15 39 38 43 49 29 79 -94 137 -189 89z"/>
<path d="M720 5666 c0 -24 -3 -64 -6 -90 -5 -31 -3 -46 5 -46 6 0 11 7 11 15
0 28 42 106 65 121 13 8 39 18 59 21 l36 6 0 -197 0 -196 -32 -20 -33 -20 125
0 125 0 -35 18 -35 17 -3 199 -2 199 36 -6 c66 -11 93 -40 128 -141 13 -38 17
-6 10 78 l-7 86 -223 0 -224 0 0 -44z"/>
<path d="M6802 5691 c19 -16 36 -59 83 -225 l59 -206 46 0 46 0 28 118 c37
156 36 155 53 97 8 -27 25 -87 39 -132 l25 -83 44 0 c38 0 45 3 50 23 37 156
86 348 94 369 5 15 23 34 38 42 27 15 25 15 -52 15 -64 0 -75 -3 -58 -11 12
-6 25 -18 28 -27 8 -19 -55 -305 -65 -294 -4 4 -21 64 -39 133 -18 69 -37 142
-42 163 l-10 37 -60 0 c-54 0 -60 -2 -54 -17 27 -71 28 -111 5 -204 -12 -52
-26 -100 -30 -107 -6 -13 -80 249 -80 287 0 11 8 25 18 30 12 8 -11 10 -87 11
l-104 0 25 -19z"/>
<path d="M4553 5669 c-24 -19 -45 -44 -49 -56 -4 -16 -14 -23 -31 -23 -30 0
-26 -24 4 -28 20 -3 21 -11 25 -132 3 -119 5 -131 26 -152 35 -35 94 -31 134
9 l32 32 -38 -6 c-27 -4 -41 -2 -47 8 -5 8 -9 65 -9 127 l0 112 40 0 c54 0 56
27 3 32 l-38 3 -5 54 -5 54 -42 -34z"/>
<path d="M1715 5586 c-39 -17 -70 -52 -90 -98 -71 -172 121 -312 249 -181 38
40 41 51 6 33 -30 -16 -94 -16 -125 0 -32 17 -55 58 -55 100 l0 30 105 0 c118
0 124 4 85 68 -34 55 -111 76 -175 48z m89 -38 c32 -45 22 -58 -44 -58 -51 0
-60 3 -60 18 0 32 29 62 60 62 18 0 34 -8 44 -22z"/>
<path d="M2650 5584 c-70 -30 -102 -80 -102 -156 1 -89 49 -150 131 -169 162
-36 276 158 164 282 -51 57 -124 73 -193 43z m104 -37 c17 -23 22 -46 24 -127
4 -94 3 -100 -21 -124 -31 -31 -62 -25 -85 18 -12 23 -16 57 -17 127 0 82 3
100 19 118 25 28 53 23 80 -12z"/>
<path d="M2980 5575 c-61 -20 -63 -22 -42 -34 21 -11 22 -18 22 -131 0 -112
-1 -120 -22 -134 -21 -15 -17 -16 67 -16 78 1 88 2 72 14 -15 12 -17 28 -15
131 3 110 4 118 24 126 14 5 29 2 43 -7 19 -14 21 -24 21 -129 0 -98 -2 -115
-17 -124 -13 -8 5 -10 70 -11 l87 0 -20 20 c-18 18 -20 33 -20 130 0 105 1
111 22 119 58 21 78 -15 78 -144 0 -86 -2 -95 -22 -109 -21 -15 -16 -16 72
-15 73 0 90 3 73 11 -19 9 -21 19 -25 133 -3 107 -6 127 -24 152 -39 52 -97
56 -147 9 l-27 -25 -30 31 c-27 27 -36 30 -71 25 -23 -3 -52 -16 -65 -28 -24
-22 -24 -22 -24 -1 0 11 -3 23 -7 25 -5 2 -37 -6 -73 -18z"/>
<path d="M3571 5577 c-59 -18 -63 -21 -45 -34 18 -13 19 -28 19 -199 0 -172
-1 -187 -19 -200 -18 -12 -9 -14 80 -13 76 0 93 3 73 10 -27 10 -39 40 -39
100 0 33 -1 33 35 19 70 -27 165 40 184 129 22 105 -22 195 -103 208 -37 6
-81 -14 -101 -46 -8 -13 -11 -10 -15 14 l-5 31 -64 -19z m133 -47 c36 -13 59
-65 60 -135 1 -76 -20 -115 -64 -115 -51 0 -60 20 -60 135 0 89 3 106 18 114
21 13 16 13 46 1z"/>
<path d="M4225 5586 c-39 -17 -70 -52 -90 -98 -71 -172 120 -311 249 -182 39
39 41 53 6 34 -30 -16 -94 -16 -125 0 -32 17 -55 58 -55 100 l0 30 106 0 107
0 -7 32 c-15 78 -111 120 -191 84z m89 -38 c32 -45 22 -58 -44 -58 -51 0 -60
3 -60 18 0 32 29 62 60 62 18 0 34 -8 44 -22z"/>
<path d="M4825 5586 c-66 -29 -105 -94 -105 -172 0 -145 154 -212 257 -112 37
36 43 54 12 37 -35 -18 -107 -15 -137 8 -28 21 -57 87 -48 110 4 10 33 13 111
13 118 0 124 4 85 68 -34 55 -111 76 -175 48z m83 -29 c6 -6 13 -24 17 -40 l7
-27 -61 0 c-67 0 -77 13 -45 58 17 25 65 30 82 9z"/>
<path d="M7495 5577 c-101 -57 -120 -234 -31 -292 68 -45 146 -37 204 21 19
19 33 37 30 39 -2 2 -22 -2 -45 -10 -77 -27 -150 16 -160 94 l-6 41 111 0 111
0 -8 28 c-14 47 -34 71 -74 87 -51 21 -85 19 -132 -8z m105 -26 c5 -11 10 -29
10 -40 0 -19 -6 -21 -60 -21 -36 0 -60 4 -60 11 0 15 21 53 34 61 22 15 65 8
76 -11z"/>
<path d="M2303 4971 c-57 -17 -65 -26 -33 -34 19 -5 20 -14 20 -210 0 -201 0
-206 -22 -221 -21 -15 -16 -16 72 -15 67 0 88 3 73 9 -23 9 -23 10 -23 250 0
272 8 251 -87 221z"/>
<path d="M720 4932 c0 -6 10 -12 22 -14 31 -4 36 -30 37 -205 1 -163 -6 -198
-41 -213 -16 -7 25 -9 132 -7 148 2 157 4 205 30 87 48 126 139 105 242 -25
121 -104 163 -322 172 -96 4 -138 3 -138 -5z m278 -42 c47 -29 65 -78 66 -180
0 -67 -5 -93 -22 -126 -24 -47 -70 -74 -126 -74 l-36 0 0 200 0 200 43 0 c24
0 56 -8 75 -20z"/>
<path d="M4954 4931 c4 -6 14 -11 21 -11 8 0 19 -9 25 -19 12 -23 14 -360 2
-378 -4 -7 -19 -16 -32 -22 -36 -14 263 -14 314 0 61 17 96 58 96 112 0 39 -5
49 -35 76 -20 17 -45 31 -55 31 -26 0 -26 17 0 25 30 10 60 54 60 91 0 84 -29
97 -239 102 -119 3 -162 1 -157 -7z m268 -38 c23 -26 29 -64 17 -106 -11 -42
-33 -57 -83 -57 l-36 0 0 90 0 90 43 0 c29 0 49 -6 59 -17z m15 -207 c24 -21
28 -32 28 -76 0 -67 -33 -100 -101 -100 l-44 0 0 100 0 100 44 0 c33 0 52 -6
73 -24z"/>
<path d="M4658 4893 c-27 -21 -48 -46 -48 -55 0 -12 -8 -18 -25 -18 -16 0 -25
-6 -25 -15 0 -9 9 -15 25 -15 l25 0 0 -130 c0 -126 1 -132 25 -155 33 -34 84
-33 124 1 37 31 40 48 6 32 -46 -21 -55 0 -55 133 l0 119 40 0 c29 0 40 4 40
15 0 11 -11 15 -40 15 l-39 0 -3 56 -3 56 -47 -39z"/>
<path d="M6288 4893 c-26 -21 -47 -46 -48 -55 0 -12 -8 -18 -25 -18 -16 0 -25
-6 -25 -15 0 -9 9 -15 24 -15 l24 0 4 -136 c3 -129 4 -137 27 -155 37 -30 85
-25 129 16 l37 35 -32 -12 c-55 -21 -63 -4 -63 133 l0 119 40 0 c29 0 40 4 40
15 0 11 -11 15 -40 15 l-39 0 -3 55 -3 55 -47 -37z"/>
<path d="M1363 4819 c-101 -21 -158 -140 -119 -244 40 -105 161 -127 248 -45
46 44 47 58 2 35 -80 -42 -174 12 -174 101 0 24 0 24 105 24 99 0 105 1 105
20 0 73 -84 127 -167 109z m61 -41 c32 -45 22 -58 -44 -58 -63 0 -68 5 -49 43
23 43 68 50 93 15z"/>
<path d="M2045 4820 c-65 -14 -115 -72 -130 -151 -20 -110 78 -208 184 -184
34 7 85 46 101 76 10 17 8 17 -25 4 -19 -8 -46 -15 -60 -15 -60 0 -115 55
-115 115 l0 25 105 0 105 0 0 30 c0 63 -88 116 -165 100z m59 -42 c32 -45 22
-58 -44 -58 -67 0 -74 9 -39 54 25 32 62 34 83 4z"/>
<path d="M2601 4819 c-39 -8 -76 -34 -105 -73 -16 -21 -21 -42 -21 -94 0 -81
25 -124 89 -153 124 -56 254 34 243 169 -8 105 -101 173 -206 151z m78 -50
c37 -61 38 -206 1 -251 -25 -32 -67 -18 -87 30 -22 48 -24 188 -4 225 21 39
65 37 90 -4z"/>
<path d="M3046 4819 c-16 -4 -39 -18 -52 -30 l-24 -22 0 26 c0 32 -2 32 -66
11 -53 -18 -78 -34 -52 -34 25 0 28 -21 28 -200 0 -176 -3 -200 -26 -200 -8 0
-14 -4 -14 -10 0 -6 38 -10 95 -10 52 0 95 4 95 9 0 5 -10 11 -22 13 -21 3
-23 9 -26 66 -3 60 -2 63 17 53 62 -34 149 14 186 101 49 119 -34 256 -139
227z m13 -78 c11 -11 24 -37 30 -58 32 -113 -18 -211 -88 -173 -19 10 -21 19
-21 124 0 62 3 116 7 119 13 14 53 7 72 -12z"/>
<path d="M3446 4819 c-16 -5 -39 -18 -52 -30 l-24 -22 0 27 c0 22 -4 27 -17
23 -10 -3 -39 -11 -65 -18 -46 -13 -64 -29 -33 -29 20 0 28 -52 24 -160 -3
-77 -7 -94 -23 -106 -18 -12 -10 -14 69 -14 79 0 87 2 69 14 -16 12 -19 29
-22 121 -4 114 3 135 44 135 41 0 54 -34 54 -147 0 -87 -3 -104 -17 -112 -13
-8 6 -10 72 -10 65 0 84 3 67 9 -22 9 -23 13 -20 132 l3 123 30 3 c46 6 55
-17 55 -139 0 -92 -3 -109 -17 -118 -13 -8 5 -10 70 -11 l87 0 -20 20 c-18 18
-20 33 -20 130 0 153 -15 180 -100 180 -29 0 -46 -7 -68 -29 l-29 -30 -21 28
c-23 32 -53 41 -96 30z"/>
<path d="M3950 4817 c-73 -18 -120 -88 -120 -177 0 -108 80 -177 180 -155 31
7 110 68 110 86 0 4 -16 1 -35 -7 -44 -18 -69 -18 -110 2 -34 16 -65 65 -65
103 0 20 5 21 104 21 58 0 107 4 111 10 8 13 -19 72 -43 94 -28 24 -88 35
-132 23z m58 -25 c7 -5 16 -23 21 -40 l10 -32 -65 0 c-63 0 -65 1 -58 23 14
48 57 71 92 49z"/>
<path d="M4376 4819 c-16 -4 -39 -18 -52 -30 l-24 -22 0 26 c0 31 0 31 -65 12
-81 -24 -83 -26 -57 -36 21 -8 22 -13 22 -134 0 -121 -1 -126 -22 -135 -16 -6
6 -9 72 -9 52 1 88 3 80 6 -26 10 -30 26 -30 139 0 118 2 124 50 124 37 0 50
-38 50 -142 0 -74 -4 -100 -16 -112 -14 -15 -7 -16 73 -15 60 0 81 3 66 9 -20
8 -22 16 -25 134 -3 107 -6 128 -24 152 -24 33 -58 44 -98 33z"/>
<path d="M5562 4817 c-177 -35 -159 -314 21 -334 156 -18 253 157 156 281 -38
49 -103 68 -177 53z m85 -43 c22 -35 31 -191 13 -234 -15 -37 -53 -49 -79 -26
-39 35 -54 184 -27 251 13 29 20 35 45 35 22 0 35 -7 48 -26z"/>
<path d="M5957 4819 c-52 -8 -87 -36 -115 -90 -44 -83 -11 -188 72 -228 50
-25 93 -27 143 -6 72 30 104 78 105 155 0 116 -89 189 -205 169z m80 -51 c27
-49 26 -217 -1 -247 -25 -28 -53 -23 -80 12 -29 39 -37 204 -12 242 25 38 70
34 93 -7z"/>
<path d="M6625 4824 c-5 -1 -22 -5 -37 -8 -73 -16 -137 -118 -124 -198 22
-140 178 -188 255 -79 28 38 26 43 -6 25 -36 -18 -67 -18 -104 2 -66 34 -80
162 -24 217 26 26 43 20 65 -22 10 -22 25 -41 32 -43 45 -16 75 39 41 74 -19
18 -76 38 -98 32z"/>
<path d="M6905 4821 c-59 -15 -105 -56 -105 -96 0 -13 8 -16 38 -13 33 3 37 6
40 33 5 38 19 55 47 55 29 0 41 -16 50 -63 l7 -37 -73 -34 c-90 -41 -119 -67
-119 -106 0 -35 49 -80 89 -80 25 0 68 23 82 43 4 5 18 -3 33 -18 22 -22 33
-26 59 -21 18 4 41 15 52 26 19 20 19 20 -8 20 l-27 0 0 116 c0 114 0 116 -29
145 -16 16 -38 29 -48 29 -10 0 -27 2 -38 4 -11 3 -34 1 -50 -3z m54 -277
c-26 -31 -79 -1 -79 46 0 29 22 54 60 68 25 9 25 8 28 -45 2 -32 -2 -61 -9
-69z"/>
<path d="M7343 4818 c-18 -5 -38 -17 -46 -28 -15 -22 -27 -17 -27 12 0 22 -4
22 -66 2 -53 -18 -78 -34 -52 -34 24 0 28 -21 28 -140 0 -101 -2 -110 -22
-124 -21 -15 -17 -16 67 -16 74 0 86 2 72 13 -15 11 -17 28 -15 132 l3 120 26
3 c49 6 59 -18 59 -138 0 -93 -3 -110 -17 -119 -13 -8 6 -10 72 -10 50 0 83 3
75 6 -26 10 -30 26 -30 140 0 112 0 113 25 119 58 14 75 -18 75 -142 0 -71 -3
-87 -20 -104 l-20 -20 88 0 c64 1 82 3 70 11 -15 8 -18 25 -18 107 -1 165 -23
212 -101 212 -28 0 -47 -8 -71 -29 l-32 -28 -23 27 c-26 32 -55 40 -100 28z"/>
<path d="M1552 4810 c9 -6 25 -34 36 -63 11 -28 36 -98 57 -154 37 -102 37
-103 70 -103 32 0 34 3 61 73 15 39 40 106 56 147 15 41 38 83 51 92 22 17 21
18 -37 18 -57 0 -58 0 -37 -18 l22 -17 -32 -90 c-18 -50 -35 -94 -39 -98 -7
-8 -70 164 -70 191 0 7 10 17 23 22 15 6 -8 9 -78 9 -70 0 -95 -3 -83 -9z"/>
<path d="M7790 4804 c-75 -23 -78 -25 -52 -35 22 -8 22 -11 22 -198 0 -170 -2
-191 -17 -200 -31 -17 -8 -22 88 -18 66 2 87 6 71 11 -28 10 -42 43 -42 96 l0
39 30 -11 c64 -22 148 20 176 89 16 38 18 130 4 168 -29 75 -119 100 -179 49
l-31 -26 0 26 c0 29 -6 30 -70 10z m152 -61 c30 -34 40 -66 41 -125 1 -92 -44
-139 -98 -104 -24 16 -25 21 -25 125 0 59 3 111 7 114 13 13 60 7 75 -10z"/>
<path d="M713 4040 c0 -36 2 -50 4 -32 2 17 2 47 0 65 -2 17 -4 3 -4 -33z"/>
<path d="M928 4084 c-2 -10 -2 -38 0 -61 3 -32 8 -43 21 -43 13 0 13 2 2 9 -9
6 -12 20 -9 42 3 19 2 43 -2 53 -7 20 -7 20 -12 0z"/>
<path d="M1228 4083 c-2 -10 -2 -37 0 -60 3 -31 9 -43 20 -43 12 0 13 3 4 12
-14 14 -16 55 -4 60 4 2 3 13 -4 26 -10 20 -12 21 -16 5z"/>
<path d="M1620 4040 l0 -60 31 0 c50 0 69 16 69 58 0 48 -14 62 -62 62 l-38 0
0 -60z m73 19 c14 -22 2 -49 -23 -49 -16 0 -20 6 -20 36 0 28 4 35 16 32 9 -2
21 -10 27 -19z"/>
<path d="M1905 4088 c-15 -41 -35 -101 -35 -104 0 -11 29 -2 34 11 3 8 12 15
21 15 9 0 18 -7 21 -15 4 -8 13 -15 21 -15 15 0 14 4 -12 80 -12 36 -41 52
-50 28z m35 -50 c0 -5 -6 -8 -14 -8 -9 0 -12 7 -9 21 4 16 8 17 14 7 5 -7 9
-16 9 -20z"/>
<path d="M2300 4040 c0 -33 4 -60 10 -60 6 0 10 27 10 60 0 33 -4 60 -10 60
-6 0 -10 -27 -10 -60z"/>
<path d="M2460 4093 c0 -5 9 -21 20 -38 11 -16 20 -40 20 -52 0 -13 5 -23 10
-23 6 0 10 10 10 23 0 12 9 37 20 55 24 39 24 42 6 42 -8 0 -18 -9 -21 -20 -3
-11 -10 -20 -15 -20 -5 0 -12 9 -15 20 -6 19 -35 29 -35 13z"/>
<path d="M768 4063 c-14 -3 -18 -14 -17 -46 1 -43 3 -42 13 6 4 15 13 27 21
27 8 0 17 -12 21 -27 10 -47 12 -49 13 -12 1 31 -14 61 -28 58 -4 -1 -14 -3
-23 -6z"/>
<path d="M853 4063 c-22 -8 -14 -33 13 -43 30 -12 22 -34 -9 -24 -17 5 -19 3
-11 -6 16 -16 48 -9 52 13 2 11 -6 21 -25 29 l-28 11 30 6 c25 5 27 8 12 14
-10 4 -19 7 -20 6 -1 0 -8 -3 -14 -6z"/>
<path d="M1146 4054 c-19 -18 -21 -45 -4 -62 15 -15 45 -16 53 -2 4 6 -4 9
-17 7 -19 -2 -24 3 -26 27 -3 26 -1 28 22 24 28 -6 36 6 10 16 -21 8 -20 8
-38 -10z"/>
<path d="M1286 4054 c-19 -18 -20 -28 -6 -55 12 -21 40 -25 58 -7 18 18 14 56
-7 68 -25 13 -27 13 -45 -6z m48 -42 c-16 -25 -38 -21 -42 7 -5 30 18 45 38
25 11 -11 12 -19 4 -32z"/>
<path d="M1388 4062 c-14 -3 -18 -13 -17 -45 2 -34 3 -36 6 -12 2 17 12 36 20
42 19 15 15 21 -9 15z"/>
<path d="M1432 4058 c-18 -18 -15 -27 13 -38 34 -13 33 -34 -1 -26 -17 5 -23
3 -19 -4 9 -14 40 -13 54 3 12 15 -3 37 -26 37 -7 0 -13 5 -13 10 0 6 9 10 21
10 11 0 17 5 14 10 -8 14 -28 13 -43 -2z"/>
<path d="M1763 4062 c-19 -3 -23 -10 -23 -43 0 -21 5 -39 10 -39 6 0 10 9 10
19 0 11 7 27 16 35 20 21 15 32 -13 28z"/>
<path d="M2013 4063 c-19 -4 -23 -11 -23 -44 0 -50 27 -55 32 -6 2 17 8 32 13
32 6 0 11 -15 13 -32 5 -46 22 -41 22 6 0 26 -5 41 -16 45 -9 3 -16 5 -17 5
-1 -1 -12 -4 -24 -6z"/>
<path d="M2106 4058 c-34 -19 -7 -88 29 -74 8 3 15 0 15 -6 0 -6 -11 -8 -31
-4 -22 4 -29 2 -26 -7 2 -6 19 -12 38 -12 34 0 34 0 37 51 3 48 1 52 -22 56
-13 3 -31 1 -40 -4z m41 -24 c8 -21 -13 -42 -28 -27 -13 13 -5 43 11 43 6 0
13 -7 17 -16z"/>
<path d="M2206 4055 c-19 -20 -20 -35 -3 -59 15 -20 58 -19 65 2 3 9 -3 11
-22 6 -16 -4 -26 -2 -26 5 0 6 14 11 31 11 30 0 31 1 17 23 -19 28 -41 32 -62
12z m44 -15 c0 -5 -7 -10 -15 -10 -8 0 -15 5 -15 10 0 6 7 10 15 10 8 0 15 -4
15 -10z"/>
<path d="M2354 4054 c-18 -15 -18 -15 9 -9 15 3 27 1 27 -4 0 -5 -10 -11 -22
-13 -15 -2 -23 -10 -23 -23 0 -16 8 -21 38 -23 35 -3 37 -2 37 27 0 27 -21 61
-39 61 -4 0 -16 -7 -27 -16z m36 -44 c0 -5 -4 -10 -10 -10 -5 0 -10 5 -10 10
0 6 5 10 10 10 6 0 10 -4 10 -10z"/>
<path d="M980 4020 c0 -22 5 -40 10 -40 6 0 10 15 10 34 0 19 6 37 13 39 6 3
2 6 -10 6 -20 1 -23 -4 -23 -39z"/>
<path d="M1053 4025 c2 -36 5 -40 30 -41 25 -1 27 1 26 40 l-2 41 -6 -35 c-4
-22 -12 -35 -21 -35 -9 0 -18 13 -22 35 l-6 35 1 -40z"/>
<path d="M2560 4036 c0 -44 10 -56 46 -56 33 0 34 1 34 40 0 47 -15 53 -23 10
-4 -16 -11 -30 -17 -30 -5 0 -10 14 -10 30 0 20 -5 30 -15 30 -9 0 -15 -9 -15
-24z"/>
<path d="M1800 3995 c0 -8 5 -15 10 -15 6 0 10 7 10 15 0 8 -4 15 -10 15 -5 0
-10 -7 -10 -15z"/>
<path d="M1942 1600 c-19 -4 -47 -20 -63 -36 -71 -68 -59 -220 21 -268 32 -19
102 -21 133 -5 16 9 22 9 25 0 2 -6 17 -11 33 -11 l29 0 0 90 0 90 -75 0 -75
0 0 -30 c0 -29 2 -30 44 -30 39 0 44 -2 39 -20 -7 -26 -41 -50 -70 -50 -12 0
-35 11 -50 24 -25 22 -28 31 -28 86 0 55 3 64 28 86 36 30 68 30 104 0 27 -23
43 -23 71 0 12 9 -26 49 -61 65 -45 20 -55 21 -105 9z"/>
<path d="M700 1594 c0 -3 25 -47 55 -98 51 -85 55 -97 55 -154 l0 -62 35 0 35
0 0 66 c0 64 3 71 55 154 30 48 55 90 55 94 0 3 -16 6 -35 6 -31 0 -39 -5 -63
-46 -48 -82 -44 -81 -82 -15 -32 58 -36 61 -72 61 -21 0 -38 -3 -38 -6z"/>
<path d="M1470 1440 l0 -160 35 0 35 0 0 73 c0 75 9 97 42 97 26 0 38 -32 38
-104 l0 -66 30 0 30 0 0 95 c0 83 -3 98 -21 116 -21 21 -59 23 -101 4 -16 -6
-18 -1 -18 49 l0 56 -35 0 -35 0 0 -160z"/>
<path d="M2743 1583 c-8 -2 -13 -22 -13 -44 0 -32 -3 -39 -20 -39 -13 0 -20
-7 -20 -20 0 -13 7 -20 19 -20 16 0 19 -10 23 -81 5 -91 11 -99 76 -99 38 0
42 2 42 24 0 18 -6 25 -22 28 -21 3 -23 8 -23 63 0 55 2 60 23 63 14 2 22 10
22 22 0 12 -8 20 -22 22 -19 2 -24 10 -26 46 -3 36 -6 42 -25 41 -12 0 -28 -3
-34 -6z"/>
<path d="M1019 1499 c-21 -8 -49 -45 -49 -64 0 -13 61 -3 66 10 8 19 60 20 67
0 8 -18 2 -21 -50 -30 -58 -9 -86 -34 -86 -75 0 -49 21 -59 125 -58 l90 1 -6
30 c-3 16 -6 55 -6 87 0 75 -19 101 -80 106 -25 2 -57 -1 -71 -7z m91 -132 c0
-26 -26 -49 -50 -45 -33 4 -38 35 -8 47 34 14 58 13 58 -2z"/>
<path d="M1260 1497 c-35 -18 -48 -59 -27 -90 12 -19 31 -29 72 -37 36 -7 55
-16 55 -26 0 -19 -68 -19 -89 0 -14 13 -19 12 -40 -4 l-25 -18 35 -21 c46 -29
131 -29 159 -1 23 23 26 72 5 93 -8 8 -37 20 -65 27 -30 7 -50 17 -50 26 0 16
47 19 69 5 16 -10 51 3 51 19 0 16 -57 40 -92 40 -18 0 -44 -6 -58 -13z"/>
<path d="M2532 1501 c-8 -5 -34 -6 -58 -3 l-44 5 0 -157 0 -156 35 0 35 0 0
57 c0 44 3 54 12 45 15 -15 82 -16 109 -2 43 24 63 109 37 165 -20 44 -90 69
-126 46z m52 -57 c19 -18 21 -85 4 -102 -31 -31 -88 -2 -88 46 0 58 50 91 84
56z"/>
<path d="M2939 1499 c-21 -8 -49 -45 -49 -64 0 -13 61 -3 66 10 8 19 60 20 67
0 8 -18 2 -21 -52 -30 -58 -10 -95 -46 -86 -83 10 -43 29 -51 127 -50 l90 1
-6 30 c-3 16 -6 55 -6 87 0 75 -19 101 -80 106 -25 2 -57 -1 -71 -7z m91 -123
c0 -3 -5 -17 -10 -31 -8 -21 -16 -26 -37 -23 -36 4 -43 35 -11 47 24 10 58 14
58 7z"/>
<path d="M2162 1410 c3 -68 8 -94 23 -110 20 -22 73 -27 106 -10 13 7 19 7 19
0 0 -5 16 -10 35 -10 l35 0 0 110 0 110 -35 0 -35 0 0 -64 c0 -48 -5 -70 -19
-87 -16 -20 -23 -22 -38 -13 -14 9 -19 26 -21 88 l-3 76 -36 0 -35 0 4 -90z"/>
<path d="M710 900 l0 -60 35 0 c43 0 70 34 59 74 -7 30 -31 46 -68 46 -25 0
-26 -2 -26 -60z m76 13 c9 -34 -7 -58 -37 -58 -21 0 -24 5 -27 43 -3 41 -2 42
27 42 25 0 32 -5 37 -27z"/>
<path d="M1200 911 c0 -39 -4 -51 -15 -51 -8 0 -15 -4 -15 -10 0 -5 11 -10 25
-10 28 0 39 26 33 80 -5 57 -28 49 -28 -9z"/>
<path d="M1531 947 c-14 -18 -2 -30 15 -16 7 6 19 7 25 3 9 -5 7 -11 -7 -21
-18 -13 -18 -15 -1 -24 28 -17 20 -32 -14 -25 -22 4 -29 2 -26 -7 2 -6 19 -12
38 -12 34 0 34 0 35 50 1 28 -3 53 -10 57 -18 12 -43 9 -55 -5z"/>
<path d="M1632 948 c-14 -14 -16 -76 -3 -96 15 -24 63 -10 73 20 18 53 -35
111 -70 76z m46 -54 c-4 -35 -32 -39 -36 -6 -4 27 17 57 30 44 5 -5 8 -22 6
-38z"/>
<path d="M1822 948 c-14 -14 -16 -38 -3 -38 5 0 11 7 15 15 8 21 26 19 26 -3
0 -10 -11 -29 -25 -42 -34 -32 -32 -40 15 -40 22 0 40 5 40 10 0 6 -10 10 -22
10 l-22 0 22 20 c34 32 23 80 -18 80 -9 0 -21 -5 -28 -12z"/>
<path d="M1921 946 c-7 -8 -11 -34 -9 -58 3 -42 4 -43 38 -43 34 0 35 1 38 43
2 24 -2 50 -9 58 -15 18 -43 18 -58 0z m44 -52 c0 -19 -5 -29 -15 -29 -16 0
-25 28 -16 51 10 25 31 10 31 -22z"/>
<path d="M2022 948 c-17 -17 -15 -38 3 -38 8 0 15 7 15 15 0 20 19 19 27 -2 4
-11 -4 -25 -27 -45 -19 -15 -31 -30 -28 -33 3 -4 26 -5 49 -3 40 3 42 5 21 14
-21 9 -22 11 -8 23 21 17 21 67 0 75 -24 9 -39 7 -52 -6z"/>
<path d="M2121 947 c-14 -18 -2 -30 15 -16 7 6 19 7 25 3 9 -5 7 -11 -7 -21
-18 -13 -18 -15 -1 -24 28 -17 20 -32 -14 -25 -22 4 -29 2 -27 -7 3 -6 19 -13
36 -15 33 -3 57 23 43 47 -5 7 -6 22 -3 33 8 33 -44 52 -67 25z"/>
<path d="M931 938 c-1 -9 -7 -19 -13 -21 -10 -4 -10 -6 0 -6 7 -1 12 -15 12
-36 0 -27 4 -35 18 -34 10 0 12 3 5 6 -7 2 -13 18 -13 34 0 16 5 29 13 29 8 0
9 3 1 8 -6 4 -14 14 -17 22 -4 12 -6 12 -6 -2z"/>
<path d="M830 911 c0 -6 7 -8 15 -5 31 12 37 -9 5 -22 -40 -17 -34 -38 12 -42
l35 -3 -6 38 c-5 32 -10 38 -34 41 -15 2 -27 -1 -27 -7z m50 -41 c0 -12 -28
-25 -36 -17 -9 9 6 27 22 27 8 0 14 -5 14 -10z"/>
<path d="M982 908 c-15 -15 -15 -41 0 -56 14 -14 58 -16 58 -3 0 4 -11 6 -25
3 -18 -3 -25 0 -25 12 0 11 9 16 30 16 28 0 30 2 20 20 -12 22 -40 26 -58 8z
m43 -8 c3 -5 -3 -10 -14 -10 -12 0 -21 5 -21 10 0 6 6 10 14 10 8 0 18 -4 21
-10z"/>
<path d="M1255 910 c-4 -6 -4 -14 -1 -17 3 -3 1 -12 -5 -19 -17 -20 -1 -34 37
-34 35 0 35 1 32 38 -3 32 -7 37 -30 40 -14 2 -29 -2 -33 -8z m35 -10 c0 -5
-5 -10 -11 -10 -5 0 -7 5 -4 10 3 6 8 10 11 10 2 0 4 -4 4 -10z m5 -40 c-3 -5
-10 -10 -16 -10 -5 0 -9 5 -9 10 0 6 7 10 16 10 8 0 12 -4 9 -10z"/>
<path d="M1340 881 c0 -46 17 -56 22 -14 4 39 28 42 28 4 0 -21 5 -31 16 -31
12 0 14 9 12 38 -3 35 -5 37 -40 40 l-38 3 0 -40z"/>
<path d="M1440 855 c0 -8 5 -15 10 -15 6 0 10 7 10 15 0 8 -4 15 -10 15 -5 0
-10 -7 -10 -15z"/>
<path d="M1726 862 c-8 -13 5 -52 15 -46 12 7 12 54 0 54 -6 0 -12 -4 -15 -8z"/>
<path d="M712 643 l-2 -63 43 1 42 2 -35 6 c-34 6 -35 7 -41 61 l-6 55 -1 -62z"/>
<path d="M1148 694 c-11 -11 -10 -114 1 -114 6 0 11 15 13 33 4 44 31 43 40
-3 l6 -35 -1 40 c-2 33 -6 41 -24 43 -13 2 -23 12 -25 24 -2 11 -6 16 -10 12z"/>
<path d="M1356 678 c-32 -45 -13 -98 34 -98 24 0 31 5 36 27 8 28 -19 58 -43
49 -16 -6 -17 10 -3 19 6 4 17 2 24 -4 17 -14 29 -2 15 16 -17 20 -46 16 -63
-9z m48 -69 c-8 -14 -34 -11 -34 4 0 8 3 17 7 20 9 9 34 -13 27 -24z"/>
<path d="M1456 684 c-14 -37 -7 -55 22 -52 19 2 27 -2 27 -12 0 -10 -9 -14
-28 -13 -18 1 -27 -2 -24 -10 2 -7 19 -12 38 -12 28 0 35 4 37 23 4 28 -14 52
-40 52 -10 0 -16 5 -13 10 3 6 17 10 31 10 14 0 22 4 19 10 -10 16 -62 12 -69
-6z"/>
<path d="M1607 693 c-4 -3 -7 -20 -7 -36 0 -26 3 -29 25 -23 21 5 25 3 25 -15
0 -18 -4 -20 -26 -15 -19 5 -25 3 -22 -6 3 -7 19 -14 36 -16 26 -3 32 1 38 23
7 30 -10 55 -38 55 -10 0 -16 5 -13 10 3 6 15 10 26 10 10 0 19 5 19 10 0 11
-53 14 -63 3z"/>
<path d="M2066 693 c-3 -3 -6 -30 -6 -60 0 -40 4 -53 15 -53 11 0 15 13 15 54
0 51 -9 74 -24 59z"/>
<path d="M2150 640 c0 -60 16 -84 22 -33 4 39 28 42 28 4 0 -21 5 -31 15 -31
9 0 15 9 15 24 0 40 -11 56 -36 56 -17 0 -24 6 -24 20 0 11 -4 20 -10 20 -6 0
-10 -27 -10 -60z"/>
<path d="M1091 678 c-1 -9 -7 -19 -13 -21 -10 -4 -10 -6 0 -6 7 -1 12 -15 12
-36 0 -27 4 -35 18 -34 10 0 12 3 5 6 -7 2 -13 18 -13 34 0 16 5 29 13 29 8 0
9 3 1 8 -6 4 -14 14 -17 22 -4 12 -6 12 -6 -2z"/>
<path d="M1740 675 c0 -8 -5 -15 -12 -15 -9 0 -9 -3 0 -12 7 -7 12 -25 12 -40
0 -20 5 -28 18 -28 17 0 18 11 13 93 -1 21 -31 23 -31 2z"/>
<path d="M1910 676 c0 -8 -6 -17 -12 -20 -10 -5 -10 -7 0 -12 6 -3 12 -19 12
-35 0 -23 4 -29 22 -29 17 0 19 3 10 12 -16 16 -15 45 1 52 10 5 10 7 0 12 -7
3 -13 12 -13 20 0 8 -4 14 -10 14 -5 0 -10 -6 -10 -14z"/>
<path d="M800 640 c-15 -28 4 -60 35 -60 13 0 26 4 30 9 3 6 -7 9 -21 8 -15
-1 -29 4 -31 11 -3 8 6 12 27 12 25 0 31 3 26 16 -3 9 -6 18 -6 20 0 14 -51 1
-60 -16z m50 0 c0 -5 -9 -10 -21 -10 -11 0 -17 5 -14 10 3 6 13 10 21 10 8 0
14 -4 14 -10z"/>
<path d="M890 621 c0 -23 5 -41 10 -41 6 0 10 16 10 36 0 28 3 35 18 32 10 -2
19 -16 24 -38 l6 -35 -1 40 c-2 37 -4 40 -34 43 -32 3 -33 2 -33 -37z"/>
<path d="M984 646 c-3 -8 -4 -25 -2 -38 2 -18 9 -23 31 -23 15 1 27 -5 27 -11
0 -15 -28 -26 -35 -14 -4 6 -11 10 -18 10 -7 0 -5 -6 5 -16 10 -10 23 -14 37
-9 18 5 21 14 21 59 0 50 -1 52 -30 54 -19 1 -33 -3 -36 -12z m51 -26 c0 -29
-32 -41 -41 -16 -9 24 4 48 23 44 12 -2 18 -12 18 -28z"/>
<path d="M1810 646 c-6 -8 -10 -25 -8 -38 4 -32 62 -39 78 -9 23 44 -38 85
-70 47z m50 -25 c0 -11 -4 -22 -9 -25 -12 -8 -34 21 -26 34 11 17 35 11 35 -9z"/>
<path d="M1975 650 c-11 -17 3 -25 19 -11 8 7 17 8 20 3 3 -6 -5 -13 -19 -16
-16 -4 -25 -13 -25 -26 0 -16 7 -20 38 -20 l39 0 -6 38 c-5 31 -11 38 -33 40
-14 2 -29 -2 -33 -8z m45 -44 c0 -11 -19 -15 -25 -6 -3 5 1 10 9 10 9 0 16 -2
16 -4z"/>
<path d="M2252 648 c-28 -28 -3 -72 39 -66 30 4 47 33 33 56 -14 21 -55 27
-72 10z m46 -30 c-2 -13 -7 -23 -13 -23 -5 0 -11 10 -13 23 -2 15 2 22 13 22
11 0 15 -7 13 -22z"/>
<path d="M2340 636 c0 -44 10 -56 46 -56 33 0 34 1 34 40 0 45 -17 55 -22 13
-4 -39 -28 -42 -28 -4 0 21 -5 31 -15 31 -9 0 -15 -9 -15 -24z"/>
<path d="M2440 620 c0 -29 4 -40 15 -40 9 0 15 9 15 24 0 14 5 28 10 31 18 11
10 25 -15 25 -22 0 -25 -4 -25 -40z"/>
<path d="M2507 646 c-6 -16 11 -36 30 -36 7 0 13 -5 13 -10 0 -6 -11 -8 -27
-4 -22 5 -25 4 -17 -5 16 -17 69 -10 69 9 0 8 -11 20 -25 27 -24 12 -25 13 -2
13 12 0 22 5 22 10 0 15 -57 12 -63 -4z"/>
<path d="M1550 596 c0 -9 7 -16 16 -16 9 0 14 5 12 12 -6 18 -28 21 -28 4z"/>
</g>
</svg>
